<svg xmlns="http://www.w3.org/2000/svg" xmlns:xlink="http://www.w3.org/1999/xlink" width="18.66998291015625"
    height="22.171875" viewBox="0 0 18.66998291015625 22.171875" fill="none">
    <path
        d="M0.963372 8.12176C1.44954 7.27908 2.14444 6.57562 2.98123 6.07946C3.80644 5.5844 4.74834 5.31792 5.71059 5.30728C6.24698 5.30728 6.95028 5.47289 7.82161 5.79945C8.69294 6.12601 9.25285 6.29162 9.4965 6.29162C9.68077 6.29162 10.3002 6.09697 11.3545 5.71077C12.3495 5.35273 13.1892 5.20463 13.8774 5.26294C15.7437 5.41347 17.1445 6.14818 18.0763 7.47329C16.4085 8.48468 15.5838 9.89957 15.6001 11.7157C15.6141 13.1306 16.1285 14.3074 17.1363 15.2419C17.5817 15.6682 18.1015 16.0094 18.67 16.2484C18.5464 16.6064 18.4157 16.9483 18.2781 17.2773C17.9551 18.0302 17.5561 18.7481 17.0872 19.42C16.461 20.3146 15.9466 20.9327 15.5523 21.277C14.9399 21.839 14.2822 22.1283 13.5789 22.1447C13.075 22.1447 12.4661 22.0013 11.7569 21.7095C11.0455 21.4191 10.3923 21.277 9.79391 21.277C9.16772 21.277 8.49578 21.4191 7.77624 21.7095C7.05763 22.0013 6.47681 22.154 6.03246 22.168C5.35941 22.1973 4.68654 21.9009 4.01573 21.277C3.58781 20.9037 3.05236 20.2621 2.40974 19.3546C1.72156 18.3876 1.15586 17.262 0.712634 15.9824C0.237856 14.5978 0 13.2588 0 11.9618C0 10.4769 0.320751 9.19501 0.963372 8.12176ZM9.3589 5.23966C9.34228 5.10021 9.33407 4.96009 9.33444 4.81976C9.33444 3.75471 9.79634 2.61628 10.621 1.68425C11.0315 1.21314 11.5539 0.820068 12.1874 0.507471C12.8196 0.19953 13.4166 0.0292644 13.9788 0C13.9941 0.149204 14.001 0.297521 14.001 0.444508C14.001 1.55257 13.5951 2.58835 12.7891 3.54587C11.8142 4.6843 10.6361 5.34341 9.3589 5.23966Z"
        fill-rule="evenodd" fill="#0F172A">
    </path>
</svg>