<svg xmlns="http://www.w3.org/2000/svg" xmlns:xlink="http://www.w3.org/1999/xlink" width="100%" height="100%"
    viewBox="0 0 24 24" fill="none">
    <path
        d="M2.5 11.48C2.5 8.72 4.68808 6.47 7.38 6.47L7.58 6.47C7.59957 5.27 8.06103 4.15 8.89 3.31C9.72885 2.46 10.8006 2.03 12.01 2C14.4289 2 16.3907 4 16.42 6.47L16.62 6.47C19.3119 6.47 21.5 8.72 21.5 11.48L21.5 17C21.5 19.76 19.3119 22 16.62 22L7.38 22C4.68808 22 2.5 19.76 2.5 17L2.5 11.48ZM12 3.5C13.6092 3.5 14.9207 4.83 14.95 6.47L9.04 6.47C9.0595 5.68001 9.36392 4.93999 9.91 4.38C10.4756 3.81 11.2491 3.5 12 3.5ZM8.93 8.4102C8.93 8.00021 8.6088 7.6602 8.2 7.6602C7.80094 7.6602 7.47 8.00021 7.47 8.4102L7.47 9.5702C7.47 9.98019 7.80094 10.3202 8.2 10.3202C8.6088 10.3202 8.93 9.98019 8.93 9.5702L8.93 8.4102ZM15.6999 7.6602C16.1087 7.6602 16.4299 8.00021 16.4299 8.4102L16.4299 9.5702C16.4299 9.98019 16.1087 10.3202 15.6999 10.3202C15.3008 10.3202 14.9699 9.98019 14.9699 9.5702L14.9699 8.4102C14.9699 8.00021 15.3008 7.6602 15.6999 7.6602Z"
        fill-rule="evenodd" fill="currentColor">
    </path>
</svg>