<svg xmlns="http://www.w3.org/2000/svg" xmlns:xlink="http://www.w3.org/1999/xlink" width="16" height="16"
    viewBox="0 0 16 16" fill="none">
    <path
        d="M4.83208 13.4501C5.15982 13.455 5.49862 13.46 5.7033 13.5447C5.9259 13.6368 6.18014 13.8806 6.42598 14.1163C6.85788 14.5306 7.34732 15 8 15C8.65268 15 9.14212 14.5306 9.57402 14.1163C9.81986 13.8806 10.0741 13.6368 10.2967 13.5447C10.5014 13.46 10.8402 13.455 11.1681 13.4501C11.7779 13.4408 12.4692 13.4303 12.9497 12.9497C13.4303 12.4691 13.4408 11.7779 13.4501 11.1681C13.455 10.8402 13.46 10.5014 13.5447 10.2967C13.6368 10.0741 13.8806 9.81986 14.1163 9.57402C14.5306 9.14212 15 8.65268 15 8C15 7.34732 14.5306 6.85788 14.1163 6.42598C13.8806 6.18014 13.6368 5.9259 13.5447 5.7033C13.46 5.49862 13.455 5.15982 13.4501 4.83194C13.4408 4.2221 13.4303 3.53078 12.9497 3.0503C12.4691 2.56968 11.7779 2.55918 11.1681 2.54994C10.8402 2.54504 10.5014 2.54 10.2967 2.4553C10.0741 2.36318 9.81986 2.11944 9.57402 1.88368C9.14212 1.46942 8.65268 1 8 1C7.34732 1 6.85788 1.46942 6.42598 1.88368C6.18014 2.11944 5.9259 2.36318 5.7033 2.4553C5.49862 2.54 5.15982 2.54504 4.83194 2.54994C4.2221 2.55918 3.53078 2.56968 3.0503 3.0503C2.56968 3.53092 2.55918 4.2221 2.54994 4.83208C2.54504 5.15982 2.54 5.49862 2.4553 5.7033C2.36318 5.9259 2.11944 6.18014 1.88368 6.42598C1.46942 6.85788 1 7.34732 1 8C1 8.65268 1.46942 9.14212 1.88368 9.57402C2.11944 9.81986 2.36318 10.0741 2.4553 10.2967C2.54 10.5014 2.54504 10.8402 2.54994 11.1681C2.55918 11.7779 2.56968 12.4692 3.0503 12.9497C3.53092 13.4303 4.2221 13.4408 4.83208 13.4501ZM11.2206 6.31706C11.2442 6.3788 11.2556 6.4446 11.2536 6.51068C11.2518 6.57676 11.2368 6.64172 11.2095 6.70206C11.1823 6.76226 11.1434 6.81658 11.0951 6.86166L7.42852 10.3617C7.33556 10.4504 7.21194 10.5 7.08328 10.5C6.95476 10.5 6.83114 10.4504 6.73818 10.3617L4.90488 8.61166C4.85658 8.56658 4.81766 8.51226 4.7905 8.45206C4.7632 8.39172 4.74822 8.32676 4.7464 8.26068C4.74444 8.1946 4.75578 8.1288 4.77944 8.06706C4.8031 8.00532 4.8388 7.94904 4.88444 7.90116C4.93008 7.85328 4.98482 7.81506 5.0453 7.78846C5.10592 7.76186 5.17102 7.74758 5.2371 7.74646C5.30318 7.7452 5.36898 7.75724 5.43044 7.78146C5.4919 7.80582 5.5479 7.84222 5.59522 7.88828L7.08328 9.30872L10.4048 6.13828C10.4521 6.09222 10.5081 6.05582 10.5696 6.03146C10.631 6.00724 10.6968 5.9952 10.7629 5.99646C10.829 5.99758 10.8941 6.01186 10.9547 6.03846C11.0152 6.06506 11.0699 6.10328 11.1156 6.15116C11.1612 6.19904 11.1969 6.25532 11.2206 6.31706Z"
        fill-rule="evenodd" fill="#10B981">
    </path>
</svg>