<svg xmlns="http://www.w3.org/2000/svg" xmlns:xlink="http://www.w3.org/1999/xlink" width="100%" height="100%"
    viewBox="0 0 16 16" fill="none">
    <path
        d="M3.33343 2.66675L6.00007 2.66675C6.36827 2.66675 6.66675 2.96523 6.66675 3.33343L6.66675 6.00007C6.66675 6.36827 6.36827 6.66675 6.00007 6.66675L3.33343 6.66675C2.96523 6.66675 2.66675 6.36827 2.66675 6.00007L2.66675 3.33343C2.66675 2.96523 2.96523 2.66675 3.33343 2.66675Z"
        stroke="currentColor" stroke-width="1.5" stroke-linejoin="round" stroke-linecap="round">
    </path>
    <path
        d="M9.99993 2.66675L12.6666 2.66675C13.0348 2.66675 13.3333 2.96523 13.3333 3.33343L13.3333 6.00007C13.3333 6.36827 13.0348 6.66675 12.6666 6.66675L9.99993 6.66675C9.63173 6.66675 9.33325 6.36827 9.33325 6.00007L9.33325 3.33343C9.33325 2.96523 9.63173 2.66675 9.99993 2.66675Z"
        stroke="currentColor" stroke-width="1.5" stroke-linejoin="round" stroke-linecap="round">
    </path>
    <path
        d="M3.33343 9.33325L6.00007 9.33325C6.36827 9.33325 6.66675 9.63173 6.66675 9.99993L6.66675 12.6666C6.66675 13.0348 6.36827 13.3333 6.00007 13.3333L3.33343 13.3333C2.96523 13.3333 2.66675 13.0348 2.66675 12.6666L2.66675 9.99993C2.66675 9.63173 2.96523 9.33325 3.33343 9.33325Z"
        stroke="currentColor" stroke-width="1.5" stroke-linejoin="round" stroke-linecap="round">
    </path>
    <path
        d="M9.99993 9.33325L12.6666 9.33325C13.0348 9.33325 13.3333 9.63173 13.3333 9.99993L13.3333 12.6666C13.3333 13.0348 13.0348 13.3333 12.6666 13.3333L9.99993 13.3333C9.63173 13.3333 9.33325 13.0348 9.33325 12.6666L9.33325 9.99993C9.33325 9.63173 9.63173 9.33325 9.99993 9.33325Z"
        stroke="currentColor" stroke-width="1.5" stroke-linejoin="round" stroke-linecap="round">
    </path>
</svg>