<svg xmlns="http://www.w3.org/2000/svg" xmlns:xlink="http://www.w3.org/1999/xlink" width="120.16000366210938"
    height="159" viewBox="0 0 120.16000366210938 159" fill="none">
    <path
        d="M112.752 109.79L10.4279 109.79C6.33624 109.79 3.02 106.474 3.02 102.382L3.02 47.5575C3.02 43.4662 6.33624 40.1499 10.4279 40.1499L112.752 40.1499C116.844 40.1499 120.16 43.4662 120.16 47.5575L120.16 102.393C120.16 106.474 116.844 109.79 112.752 109.79Z"
        fill="url(#linear_fill_PVKu4DDnMc)">
    </path>
    <path
        d="M111.43 13.2491L111.43 53.9201L11.63 53.9201L11.63 13.2491C11.63 10.3852 14.0312 8.06006 17.0022 8.06006L106.058 8.06006C109.029 8.06006 111.43 10.3852 111.43 13.2491Z"
        fill="#F8FAFC">
    </path>
    <path
        d="M111.43 53.9199L111.43 70.2742C111.43 73.1379 109.029 75.4637 106.058 75.4637L64.5979 90.5688C62.6278 91.2903 60.4422 91.2903 58.4721 90.5688L17.0022 75.4637C14.0412 75.4637 11.63 73.1379 11.63 70.2742L11.63 53.9199L111.43 53.9199Z"
        fill="#F1F5F9">
    </path>
    <path transform="translate(45.32000732421875, 0)" fill="#10B981"
        d="M0 16.12L0 16.11C0 7.21269 7.21269 0 16.11 0L16.12 0C25.0173 0 32.23 7.21269 32.23 16.11L32.23 16.12C32.23 25.0173 25.0173 32.23 16.12 32.23L16.11 32.23C7.21269 32.23 0 25.0173 0 16.12Z">
    </path>
    <path stroke="rgba(255, 255, 255, 1)" stroke-width="2.5" stroke-linejoin="round" stroke-linecap="round"
        d="M54.32 16L59.32 21L69.32 11">
    </path>
    <g filter="url(#filter_ubBTm3bRvI)">
        <ellipse cx="62.160003662109375" cy="139" rx="41" ry="5" fill="#94A3B8" fill-opacity="0.15">
        </ellipse>
    </g>
    <path
        d="M32.4476 101L11.8724 101C11.4838 101 11.16 100.237 11.16 99.3206L11.16 98.6794C11.16 97.7634 11.4838 97 11.8724 97L32.4476 97C32.8362 97 33.16 97.7634 33.16 98.6794L33.16 99.3206C33.16 100.237 32.8428 101 32.4476 101Z"
        fill="#F7F7F7">
    </path>
    <path
        d="M43.9437 66.7001L1.28634 66.7001C0.578944 66.7001 0 66.1212 0 65.4136L0 44.5965C0 43.889 0.578944 43.3101 1.28634 43.3101L43.9437 43.3101C44.6511 43.3101 45.23 43.889 45.23 44.5965L45.23 65.4136C45.23 66.1212 44.6511 66.7001 43.9437 66.7001Z"
        fill="#FFFFFF">
    </path>
    <path d="M38.07 64.5153L45.23 72.82L45.23 55L38.07 64.5153Z" fill="#FFFFFF">
    </path>
    <path
        d="M40.4711 49.83L6.41896 49.83C5.77596 49.83 5.24001 49.2938 5.24001 48.6502L5.24001 48.1998C5.24001 47.5563 5.77596 47.02 6.41896 47.02L40.4711 47.02C41.1141 47.02 41.65 47.5563 41.65 48.1998L41.65 48.6502C41.65 49.2938 41.125 49.83 40.4711 49.83Z"
        fill="#E2E8F0">
    </path>
    <path
        d="M40.4711 55.33L6.41896 55.33C5.77596 55.33 5.24001 54.7938 5.24001 54.1502L5.24001 53.6998C5.24001 53.0563 5.77596 52.52 6.41896 52.52L40.4711 52.52C41.1141 52.52 41.65 53.0563 41.65 53.6998L41.65 54.1502C41.65 54.7938 41.125 55.33 40.4711 55.33Z"
        fill="#E2E8F0">
    </path>
    <path
        d="M24.7607 60.81L6.41928 60.81C5.77593 60.81 5.24001 60.2737 5.24001 59.6302L5.24001 59.1798C5.24001 58.5363 5.77593 58 6.41928 58L24.7607 58C25.4041 58 25.94 58.5363 25.94 59.1798L25.94 59.6302C25.94 60.2845 25.4041 60.81 24.7607 60.81Z"
        fill="#E2E8F0">
    </path>
    <defs>
        <linearGradient id="linear_fill_PVKu4DDnMc" x1="61.44093322753906" y1="122.380859375" x2="61.44093322753906"
            y2="43.30908203125" gradientUnits="userSpaceOnUse">
            <stop offset="0" stop-color="#FED2AA" />
            <stop offset="1" stop-color="#FFF4EB" />
        </linearGradient>
        <filter id="filter_ubBTm3bRvI" x="6.160003662109375" y="119" width="112" height="40"
            filterUnits="userSpaceOnUse" color-interpolation-filters="sRGB">
            <feFlood flood-opacity="0" result="feFloodId_ubBTm3bRvI" />
            <feBlend mode="normal" in="SourceGraphic" in2="feFloodId_ubBTm3bRvI" result="shape" />
            <feGaussianBlur result="gaussian_blur_ubBTm3bRvI" stdDeviation="7.5" />
        </filter>
    </defs>
</svg>