<svg xmlns="http://www.w3.org/2000/svg" xmlns:xlink="http://www.w3.org/1999/xlink" width="22" height="22"
    viewBox="0 0 22 22" fill="none">
    <path
        d="M4.82962 8.95C5.25839 7.65261 6.086 6.52374 7.19422 5.72451C8.30243 4.92527 9.63462 4.49648 11.001 4.49925C12.5498 4.49925 13.9501 5.04923 15.0498 5.94924L18.25 2.74962C16.2998 1.04948 13.8007 0 11.001 0C6.6662 0 2.93434 2.4728 1.14001 6.09495L4.82962 8.95Z"
        fill="#EA4335">
    </path>
    <path
        d="M18.18 19.2503L14.7025 16.5126L14.7016 16.5126C13.7023 17.157 12.4335 17.5007 10.9977 17.5007C9.63625 17.5034 8.30857 17.078 7.20236 16.2847C6.09616 15.4913 5.26753 14.3703 4.83395 13.0801L1.13 15.8911C2.03877 17.7301 3.44522 19.2772 5.18944 20.3571C6.93383 21.437 8.94607 22.0061 10.9977 22C13.6866 22 16.2556 21.044 18.18 19.2503Z"
        fill="#34A853">
    </path>
    <path
        d="M18.1815 19.25C20.1937 17.3727 21.5 14.5788 21.5 11.0002C21.5 10.3493 21.4 9.64995 21.2506 9L11 9L11 13.2505L16.9 13.2505C16.6093 14.6795 15.8274 15.786 14.7044 16.5119L18.1815 19.25Z"
        fill="#4A90E2">
    </path>
    <path
        d="M4.84 13.08C4.61562 12.4101 4.50164 11.7083 4.50246 11.002C4.50246 10.2855 4.61712 9.59738 4.82993 8.95418L1.1374 6.1001C0.381973 7.62352 -0.0074052 9.30192 9.68e-05 11.002C9.68e-05 12.7611 0.408254 14.4195 1.13464 15.8901L4.84 13.08Z"
        fill="#FBBC05">
    </path>
</svg>