<svg xmlns="http://www.w3.org/2000/svg" xmlns:xlink="http://www.w3.org/1999/xlink" width="100%" height="100%"
    viewBox="0 0 24 24" fill="none">
    <path
        d="M4.03003 18.0107C4.03003 18.5409 4.24075 19.0494 4.61579 19.4244C4.99083 19.7993 5.49963 20.01 6.03003 20.01L18.03 20.01C18.5604 20.01 19.0692 19.7993 19.4443 19.4244C19.8193 19.0494 20.03 18.5409 20.03 18.0107L20.03 10.8127C20.03 9.98998 19.65 9.21318 19.0001 8.70838L13.667 4.56163C13.199 4.19756 12.623 4 12.03 4C11.4371 4 10.8611 4.19756 10.3931 4.56163L5.05899 8.70838C4.73851 8.95766 4.47915 9.27674 4.30075 9.64144C4.12251 10.0062 4.02987 10.4067 4.03003 10.8127L4.03003 18.0107Z"
        stroke="currentColor" stroke-width="2" stroke-linejoin="round" stroke-linecap="round" fill="currentColor">
    </path>
    <path stroke="rgba(255, 255, 255, 1)" stroke-width="2" stroke-linejoin="round" stroke-linecap="round"
        d="M8 15C10.208 16.3333 13.79 16.3333 16 15">
    </path>
</svg>