<svg xmlns="http://www.w3.org/2000/svg" xmlns:xlink="http://www.w3.org/1999/xlink" width="100%" height="100%"
    viewBox="0 0 33.937275409698486 58.53765869140625" fill="none">
    <path
        d="M8.01552 28.0715C8.04349 28.1406 8.10483 28.2443 8.27766 28.2996C10.0966 28.8747 12.7614 28.7935 15.6336 28.4456C19.8524 27.9351 24.525 26.8607 27.5344 26.5894C28.3254 26.5188 29.9112 26.0985 31.308 25.9012C31.9273 25.8127 32.5056 25.7598 32.9357 25.8248C32.6174 25.9703 32.2041 26.115 31.9868 26.2343C31.049 26.7526 30.0331 27.1247 29.0673 27.5867C26.1293 28.9902 18.1334 35.0098 15.6725 37.1687C13.681 38.9137 3.30675 49.919 0.024745 58.0681C-0.0457439 58.2431 0.0394278 58.4421 0.215865 58.5128C0.392304 58.5835 0.592475 58.4982 0.662296 58.3244C3.90492 50.2735 14.1605 39.4058 16.1277 37.6811C18.5619 35.5465 26.4622 29.5892 29.3653 28.2032C30.3446 27.7355 31.372 27.3557 32.3219 26.8313C32.6645 26.6426 33.4497 26.3787 33.7227 26.155C33.8768 26.0284 33.9339 25.8854 33.9372 25.77C33.94 25.6288 33.8872 25.4592 33.6483 25.3364C33.257 25.1359 32.631 25.0869 31.9029 25.1458C30.3871 25.2691 28.3888 25.8275 27.4692 25.9106C24.4557 26.1818 19.7743 27.256 15.5476 27.7686C13.1923 28.0531 10.982 28.1681 9.29993 27.8508C9.56718 27.6973 9.83498 27.5467 10.1055 27.3969C11.1366 26.8284 12.1399 26.1995 13.2078 25.6997C17.0527 23.9031 20.9363 22.1745 24.9015 20.6599C26.6427 19.9949 28.5858 19.1239 29.969 17.8571C30.1637 17.6778 30.6113 17.3942 30.7488 17.1947C30.8371 17.0674 30.8565 16.9417 30.838 16.8393C30.8171 16.7132 30.7473 16.5826 30.554 16.5016C29.7634 16.1689 28.3136 15.9635 26.5808 15.8491C22.6445 15.5907 17.2183 15.7746 14.995 15.7574C13.502 15.7459 12.0003 15.795 10.508 15.7366C10.4338 15.7338 9.02318 15.5628 8.35168 15.48C8.59788 15.1572 9.02027 14.7515 9.524 14.3003C11.2959 12.717 14.1166 10.7011 14.9646 10.0786C16.59 8.88379 18.243 7.73377 19.8406 6.50092C22.3619 4.55584 24.8152 2.53117 27.3576 0.613249C27.509 0.500551 27.5375 0.285573 27.423 0.136169C27.3077 -0.0148044 27.0919 -0.0444965 26.9419 0.0686431C24.3961 1.98751 21.9407 4.01416 19.4171 5.96185C17.8253 7.19055 16.1764 8.33719 14.5546 9.52912C13.6991 10.1573 10.8528 12.1938 9.0645 13.7919C8.24437 14.5246 7.64884 15.1848 7.49945 15.5912C7.45952 15.7047 7.44659 15.9558 7.75855 16.0756C8.15835 16.2283 10.3782 16.4149 10.4838 16.4192C11.9833 16.4772 13.4922 16.4278 14.9924 16.4403C17.2082 16.4577 22.6159 16.2738 26.5378 16.5316C27.9494 16.6241 29.1647 16.7687 29.9494 17.0086L29.9138 17.0374C29.7592 17.1517 29.5995 17.2644 29.5022 17.353C28.1801 18.5658 26.3173 19.3863 24.6534 20.0228C20.6717 21.5434 16.7737 23.2767 12.9143 25.082C11.8329 25.5875 10.8154 26.2245 9.77075 26.7987C9.46197 26.9689 9.15724 27.1431 8.85143 27.317C8.71915 27.3942 8.40453 27.485 8.25632 27.5617C8.14902 27.6154 8.08408 27.6817 8.05152 27.7283C7.97145 27.8489 7.97103 27.9646 8.01552 28.0715Z"
        fill="currentColor">
    </path>
</svg>