<svg xmlns="http://www.w3.org/2000/svg" xmlns:xlink="http://www.w3.org/1999/xlink" width="100%" height="100%"
    viewBox="0 0 11 11" fill="none">
    <path
        d="M4.8949 4.13282C3.87253 3.29425 3.04414 2.29561 2.42161 1.13211C2.29711 0.900342 2.00743 0.811946 1.77278 0.936176C1.54054 1.06041 1.45193 1.3495 1.57643 1.58365C2.26119 2.85703 3.16626 3.95127 4.28678 4.87107C4.4903 5.03831 4.79436 5.00965 4.96196 4.80658C5.12955 4.60108 5.09842 4.30006 4.8949 4.13282Z"
        fill="currentColor">
    </path>
    <path
        d="M4.35094 0.864945C4.40372 1.8306 4.45172 2.79626 4.5117 3.76192C4.52849 4.02483 4.75642 4.22561 5.02034 4.2089C5.28426 4.19215 5.48579 3.96508 5.469 3.70216C5.40901 2.73889 5.36102 1.77566 5.30824 0.810005C5.29384 0.547782 5.06591 0.345811 4.802 0.360633C4.53808 0.375456 4.33415 0.601335 4.35094 0.864945Z"
        fill="currentColor">
    </path>
    <path
        d="M7.90212 1.06383C7.28982 1.98727 6.59623 2.83887 5.89783 3.70008C5.73039 3.90583 5.76145 4.20727 5.96717 4.37232C6.17285 4.53977 6.47424 4.50867 6.63926 4.30292C7.3568 3.42021 8.06956 2.54226 8.70101 1.59254C8.8469 1.37245 8.7847 1.07581 8.56467 0.929885C8.347 0.783959 8.04803 0.843745 7.90212 1.06383Z"
        fill="currentColor">
    </path>
    <path
        d="M10.2698 4.48941C8.61011 4.5636 6.84767 4.56599 5.18802 4.46069C4.92493 4.44634 4.69778 4.64497 4.68103 4.91059C4.66428 5.17384 4.86519 5.40118 5.12822 5.41794C6.82136 5.52323 8.61967 5.52083 10.3128 5.44665C10.5759 5.43468 10.7815 5.20974 10.7696 4.9465C10.7576 4.68326 10.5328 4.47744 10.2698 4.48941Z"
        fill="currentColor">
    </path>
    <path
        d="M4.28885 4.80006C5.31308 6.05333 6.3732 7.2827 7.32321 8.59335C7.47876 8.80624 7.77791 8.85403 7.99328 8.69858C8.20625 8.54312 8.25413 8.24414 8.09859 8.0313C7.13659 6.70624 6.06451 5.46256 5.02829 4.19494C4.86079 3.99164 4.55924 3.96054 4.35585 4.12796C4.15006 4.29539 4.12131 4.59676 4.28885 4.80006Z"
        fill="currentColor">
    </path>
    <path
        d="M4.60046 5.1644C4.86915 6.46948 4.94352 7.71714 4.96271 9.03895C4.96511 9.30188 5.18341 9.51221 5.4473 9.50984C5.71358 9.50502 5.92469 9.28992 5.91989 9.02458C5.90069 7.64069 5.82155 6.33802 5.54086 4.9708C5.48568 4.71265 5.23379 4.54532 4.97231 4.60032C4.71323 4.65287 4.54529 4.90625 4.60046 5.1644Z"
        fill="currentColor">
    </path>
    <path
        d="M4.64339 5.05529C3.86822 6.60507 3.4687 8.32702 2.63849 9.84334C2.51171 10.0729 2.59781 10.3647 2.82988 10.4915C3.06196 10.6182 3.35144 10.5321 3.47826 10.3025C4.31322 8.77665 4.71755 7.04514 5.49988 5.48337C5.61711 5.24663 5.52141 4.95961 5.28693 4.84004C5.05011 4.72288 4.76302 4.81849 4.64339 5.05529Z"
        fill="currentColor">
    </path>
    <path
        d="M5.06784 4.70759C3.52493 4.97989 1.98448 5.1041 0.432016 5.28803C0.168887 5.31908 -0.0176968 5.55556 0.0133818 5.81832C0.0445166 6.08107 0.281343 6.26738 0.544472 6.23633C2.11363 6.0524 3.67329 5.92341 5.23532 5.64872C5.49367 5.60095 5.66828 5.35253 5.62282 5.09455C5.57499 4.83418 5.32855 4.65982 5.06784 4.70759Z"
        fill="currentColor">
    </path>
    <path
        d="M6.13591 3.97596C5.81834 3.96163 5.51751 3.94012 5.20711 3.89473C4.94448 3.8565 4.70332 4.03807 4.66511 4.29846C4.62692 4.55886 4.80835 4.80254 5.06861 4.84076C5.41243 4.89093 5.74433 4.91482 6.09292 4.92915C6.35556 4.94109 6.57998 4.73803 6.58953 4.47285C6.60148 4.21007 6.39854 3.98791 6.13591 3.97596Z"
        fill="currentColor">
    </path>
</svg>