<svg xmlns="http://www.w3.org/2000/svg" xmlns:xlink="http://www.w3.org/1999/xlink" width="100%" height="100%"
    viewBox="0 0 24 24" fill="none">
    <path stroke="rgba(26, 32, 44, 1)" stroke-width="1.5" stroke-linejoin="round" stroke-linecap="round"
        d="M9 17L9 17.9999C9 18.7957 9.316 19.5587 9.87872 20.1212C10.4413 20.6839 11.2043 21 12 21C12.7957 21 13.5587 20.6839 14.1213 20.1212C14.684 19.5587 15 18.7957 15 17.9999L15 17M18 14C18.0752 14.6217 18.2954 15.2171 18.6429 15.7381C18.9902 16.2592 19.455 16.6913 20 17L4 17C4.54496 16.6913 5.00976 16.2592 5.35712 15.7381C5.70464 15.2171 5.9248 14.6217 6 14L6 10.9999C6.05952 9.7311 6.46336 8.50224 7.168 7.44528C7.87264 6.38832 8.85152 5.54304 10 4.99998C10 4.46952 10.2107 3.96084 10.5858 3.58572C10.9608 3.21078 11.4696 3 12 3C12.5304 3 13.0392 3.21078 13.4142 3.58572C13.7893 3.96084 14 4.46952 14 4.99998C15.1485 5.54304 16.1274 6.38832 16.832 7.44528C17.5366 8.50224 17.9405 9.7311 18 10.9999L18 14Z">
    </path>
</svg>