<svg xmlns="http://www.w3.org/2000/svg" xmlns:xlink="http://www.w3.org/1999/xlink" width="26" height="26"
    viewBox="0 0 26 26" fill="none">
    <path stroke="rgba(255, 182, 182, 1)" stroke-width="2" stroke-linejoin="round" stroke-linecap="round"
        d="M16.25 9.75L9.75 16.25">
    </path>
    <path
        d="M10.83 10.29C10.83 10.5882 10.5882 10.83 10.29 10.83C9.99177 10.83 9.75 10.5882 9.75 10.29C9.75 9.99177 9.99177 9.75 10.29 9.75C10.5882 9.75 10.83 9.99177 10.83 10.29Z"
        stroke="rgba(255, 182, 182, 1)" stroke-width="2" stroke-linejoin="round" stroke-linecap="round" fill="#FFB6B6">
    </path>
    <path
        d="M16.2399 15.6997C16.2399 15.9979 15.9981 16.2397 15.6999 16.2397C15.4017 16.2397 15.1599 15.9979 15.1599 15.6997C15.1599 15.4014 15.4017 15.1597 15.6999 15.1597C15.9981 15.1597 16.2399 15.4014 16.2399 15.6997Z"
        stroke="rgba(255, 182, 182, 1)" stroke-width="2" stroke-linejoin="round" stroke-linecap="round" fill="#FFB6B6">
    </path>
    <path
        d="M12.0947 3.44248C12.3848 3.32178 12.6959 3.25977 13.01 3.25977C13.3242 3.25977 13.6352 3.32178 13.9253 3.44248C14.2153 3.56319 14.4788 3.73986 14.7003 3.96274L15.4586 4.7211C15.905 5.16492 16.5087 5.41413 17.1382 5.41452L18.2216 5.41452C18.8538 5.41452 19.46 5.66568 19.9072 6.11262C20.3541 6.55975 20.6053 7.16601 20.6053 7.7982L20.6053 8.88162C20.6056 9.51108 20.8549 10.1148 21.2987 10.5612L22.057 11.3195C22.2799 11.541 22.4566 11.8045 22.5773 12.0944C22.698 12.3846 22.76 12.6956 22.76 13.0098C22.76 13.3239 22.698 13.6349 22.5773 13.9251C22.4566 14.2151 22.2799 14.4785 22.057 14.7L21.2987 15.4584C20.8549 15.9047 20.6056 16.5085 20.6053 17.1379L20.6053 18.2213C20.6053 18.8535 20.3541 19.4598 19.9072 19.9069C19.46 20.3539 18.8538 20.605 18.2216 20.605L17.1382 20.605C16.5087 20.6054 15.905 20.8546 15.4586 21.2984L14.7003 22.0568C14.4788 22.2797 14.2153 22.4563 13.9253 22.5771C13.6352 22.6978 13.3242 22.7598 13.01 22.7598C12.6959 22.7598 12.3848 22.6978 12.0947 22.5771C11.8047 22.4563 11.5413 22.2797 11.3197 22.0568L10.5614 21.2984C10.115 20.8546 9.51132 20.6054 8.88186 20.605L7.79844 20.605C7.16625 20.605 6.55999 20.3539 6.11286 19.9069C5.66592 19.4598 5.41476 18.8535 5.41476 18.2213L5.41476 17.1379C5.41437 16.5085 5.16516 15.9047 4.72134 15.4584L3.96298 14.7C3.7401 14.4785 3.56343 14.2151 3.44272 13.9251C3.32202 13.6349 3.26001 13.3239 3.26001 13.0098C3.26001 12.6956 3.32202 12.3846 3.44272 12.0944C3.56343 11.8045 3.7401 11.541 3.96298 11.3195L4.72134 10.5612C5.16516 10.1148 5.41437 9.51108 5.41476 8.88162L5.41476 7.7982C5.41476 7.16601 5.66592 6.55975 6.11286 6.11262C6.55999 5.66568 7.16625 5.41452 7.79844 5.41452L8.88186 5.41452C9.51132 5.41413 10.115 5.16492 10.5614 4.7211L11.3197 3.96274C11.5413 3.73986 11.8047 3.56319 12.0947 3.44248Z"
        stroke="rgba(255, 182, 182, 1)" stroke-width="2" stroke-linejoin="round" stroke-linecap="round">
    </path>
</svg>