<svg xmlns="http://www.w3.org/2000/svg" xmlns:xlink="http://www.w3.org/1999/xlink" width="100%" height="100%"
    viewBox="0 0 24.6217041015625 24.62158203125" fill="none">
    <path
        d="M21.9333 7.17694C18.4806 15.4157 10.375 19.4151 2.13248 15.765C1.85796 15.6435 1.53711 15.7672 1.41507 16.0383C1.2937 16.314 1.41747 16.6354 1.69176 16.7569C10.5272 20.6737 19.2344 16.4259 22.9357 7.59828C23.0517 7.32311 22.921 7.00233 22.6443 6.88568C22.368 6.77352 22.0494 6.90177 21.9333 7.17694Z"
        fill="currentColor">
    </path>
    <path
        d="M9.81505 10.0411C9.89955 10.9124 9.26174 11.6872 8.39047 11.7717C7.51916 11.8562 6.74436 11.2184 6.65985 10.3471C6.57534 9.47585 7.21313 8.70103 8.08443 8.61651C8.95571 8.53201 9.73054 9.16982 9.81505 10.0411Z"
        fill="currentColor">
    </path>
    <path
        d="M16.1348 7.76497C16.2175 8.617 15.5937 9.37472 14.7417 9.45737C13.8896 9.54001 13.1319 8.91628 13.0493 8.06424C12.9667 7.21221 13.5904 6.45449 14.4424 6.37185C15.2945 6.2892 16.0522 6.91293 16.1348 7.76497Z"
        fill="currentColor">
    </path>
</svg>