<svg xmlns="http://www.w3.org/2000/svg" xmlns:xlink="http://www.w3.org/1999/xlink" width="100%" height="100%"
    viewBox="0 0 21.859955310821533 23.61004638671875" fill="none">
    <path
        d="M3.24097 14.6161C2.61643 14.8005 1.95341 14.9374 1.25258 15.0189C0.194337 15.1433 0.0203317 14.1705 0.0109319 14.1063C-0.00874209 13.9649 -0.0819731 13.2363 0.71548 12.945C0.802701 12.915 1.44473 12.7735 1.69197 12.7178C2.03648 12.6409 2.38493 12.5809 2.73469 12.5252C6.34749 11.4025 8.30964 8.24869 8.64017 4.72655C8.5759 4.34525 8.52737 3.96819 8.49611 3.59114C8.44911 3.02545 8.47818 2.4555 8.46135 1.89004C8.45414 1.64993 8.4255 1.0245 8.43709 0.934309C8.54202 0.150221 9.17508 0.0302818 9.36024 0.00879673C9.44986 -0.00395266 10.3695 -0.106892 10.568 0.91306C10.8115 2.1599 10.8896 3.41548 10.8034 4.64509C11.0043 5.69078 11.3482 6.73198 11.802 7.67449C13.6083 11.4238 17.0499 11.7881 20.7788 11.7538C21.3524 11.7453 21.8285 12.1951 21.8585 12.765C21.8884 13.3392 21.4617 13.8362 20.8907 13.8877C18.8064 14.0891 15.1083 15.7602 13.8297 17.4998C13.5624 17.8641 13.4067 18.7426 13.201 19.6037C12.9138 20.7993 12.5723 21.9819 12.1896 22.4789C12.1321 22.5561 11.4339 23.3444 11.2255 23.4601C10.725 23.7345 10.3243 23.5758 10.0965 23.4302C9.86892 23.2845 9.61141 22.9974 9.50845 22.5219C9.4009 22.0246 9.49183 21.0049 9.475 20.7863C9.41423 19.9937 9.25574 18.4383 8.932 17.1013C8.75756 16.3814 8.57153 15.7172 8.26396 15.3874C7.12461 14.1663 5.30302 14.3462 3.7691 14.5476C3.59291 14.5691 3.41672 14.5948 3.24097 14.6161ZM9.83263 13.9262C9.09267 13.1336 8.16449 12.6923 7.16615 12.4737C8.36123 11.4153 9.26733 10.0955 9.88007 8.62149C11.2439 11.441 13.3138 12.8035 15.7672 13.4207L15.7667 13.4207C14.2348 14.222 12.8414 15.2245 12.1028 16.2315C11.8225 16.613 11.5655 17.3799 11.3335 18.2411C11.2081 17.4398 11.0382 16.5873 10.8141 15.8587C10.559 15.0274 10.2158 14.3377 9.83263 13.9262Z"
        fill-rule="evenodd" fill="currentColor">
    </path>
</svg>