<svg xmlns="http://www.w3.org/2000/svg" xmlns:xlink="http://www.w3.org/1999/xlink" width="100%" height="100%"
    viewBox="0 0 24 24" fill="none">
    <path fill="currentColor"
        d="M12 3C9.79092 3 8 4.79086 8 7C8 9.20914 9.79092 11 12 11C14.2091 11 16 9.20914 16 7C16 4.79086 14.2091 3 12 3">
    </path>
    <path stroke="currentColor" stroke-width="1.5" stroke-linejoin="round" stroke-linecap="round"
        d="M6 21L6 19C6 17.9391 6.42144 16.9217 7.17156 16.1715C7.92168 15.4214 8.93916 15.0001 9.99996 15.0001L14 15.0001C15.0608 15.0001 16.0783 15.4214 16.8284 16.1715C17.5786 16.9217 18 17.9391 18 19L18 21M16 6.99996C16 4.79082 14.2091 3 12 3C9.79092 3 8.00004 4.79082 8.00004 6.99996C8.00004 9.2091 9.79092 10.9999 12 10.9999C14.2091 10.9999 16 9.2091 16 6.99996Z">
    </path>
</svg>