<svg xmlns="http://www.w3.org/2000/svg" xmlns:xlink="http://www.w3.org/1999/xlink" width="146.50390625"
    height="184.55078125" viewBox="0 0 146.50390625 184.55078125" fill="none">
    <g filter="url(#filter_GKRQSHOsH0)">
        <ellipse cx="75.50390625" cy="164.55078125" rx="47" ry="5" fill="#94A3B8" fill-opacity="0.2">
        </ellipse>
    </g>
    <g opacity="0.8">
        <path
            d="M70.8875 25.3096L74.6809 21.328L78.0082 25.0844L82.8658 19.8713L85.3165 23.838L89.8556 19.2698C89.8556 19.2698 93.4377 23.1059 93.4873 23.1301C93.5357 23.154 98.5443 18.1111 98.5443 18.1111L101.788 22.2289L106.132 17.5962L109.252 21.802L113.914 16.5508L116.604 20.074L119.523 16.5508C119.523 16.5508 122.149 21.0386 122.295 20.9427C122.441 20.8456 125.975 18.1755 125.975 18.1755L128.957 23.4032L132.459 20.749L135.231 25.4305L139.398 22.8086L141.604 27.1194L145.931 25.0833C146.028 25.1793 143.159 32.6211 143.159 32.6211L125.845 45.2652L56.6378 51.2008L38.5464 44.0584L28.8193 35.9032L27.9438 25.6235L31.7537 29.0497L36.3577 24.32C36.3577 24.32 39.0066 28.1319 39.1529 28.0837C39.298 28.0355 42.7775 24.224 42.7775 24.224L45.0146 27.8432L48.7431 23.7736L51.3342 27.6319L55.3576 23.3876L57.9511 26.7334C57.9511 26.7334 61.1132 22.3903 61.2583 22.3903C61.4046 22.3903 64.7119 26.1066 64.7119 26.1066L67.8728 22.1967L70.8875 25.3096Z"
            fill="url(#linear_fill_sjBYlSrPNh)">
        </path>
        <path
            d="M141.862 27.0946L139.768 22.3114L135.305 25.61L132.55 20.8345L128.862 23.1687L126.105 18.2085L122.448 21.0314L119.693 16.5508L116.793 20.145L114.118 16.5508C114.118 16.5508 109.535 21.7395 109.405 22.2106C107.309 29.7923 106.255 37.7708 106.255 37.7708L105.864 37.4429L142.313 33.1754L146.374 24.9206L141.862 27.0946Z"
            fill-rule="evenodd" fill="url(#linear_fill_tZ4laZ_wHS)">
        </path>
        <path
            d="M143.264 111.587C143.264 111.587 127.889 68.761 137.814 34.1799C137.814 34.1799 141.804 22.626 146.504 10.2549L142.096 15.9097L140.782 12.7946L137.717 16.8344L135.577 13.282L132.754 17.3695L129.348 13.6705L125.943 17.7592L122.147 14.5476L119.423 19.0247L115.821 14.7418L112.805 19.7064L109.594 15.7142L106.578 20.3868L103.074 16.2016C103.074 16.2016 100.155 21.0685 100.155 20.7765C100.155 20.4846 96.554 17.2718 96.554 17.2718L93.0505 21.8466L90.1316 17.8557L86.4341 22.2363L83.1258 18.6351L79.8164 23.5019L77.189 19.9006L73.6855 23.8904L70.1833 20.7765L67.3607 24.4743L63.468 21.2627L60.743 25.5457L57.0455 19.9971C57.0455 19.9971 52.2778 24.6698 52.4718 24.3778C52.6671 24.0858 49.8445 19.219 49.8445 19.219L45.1744 21.2627L42.3518 15.3599L39.2796 19.5109C35.4104 19.2544 35.3127 15.4821 35.5216 15.6201C35.8577 15.8388 31.2914 19.1213 31.2914 19.1213L28.0475 13.282C28.0475 13.282 17.343 75.6716 26.8784 111.781L57.0455 132.415L143.264 111.587Z"
            fill-rule="evenodd" fill="url(#linear_fill_TcXADcqG9b)">
        </path>
        <path
            d="M22.6051 63.7602C26.0691 34.6078 27.8911 25.291 27.8911 25.291L30.9652 32.6355L35.09 27.5206L37.6769 33.2426L42.3905 28.625L44.9299 35.6964L49.3959 32.1576L52.3344 38.5147L57.0139 34.9662C55.9447 35.811 39.934 103.485 56.5707 147.191L26.5854 126.508C26.5854 126.508 18.6596 96.9524 22.6051 63.7602Z"
            fill="url(#linear_fill_iOEOB4wv6m)">
        </path>
        <g opacity="0.45">
            <path
                d="M42.0707 28.9308C42.3842 28.6206 42.4738 28.6206 42.4738 28.6206L42.5939 29.1066C42.5939 29.1066 41.5953 32.7244 40.3986 37.8904C39.4798 41.8559 37.5252 50.3785 36.1451 59.945C35.6138 63.6291 35.8727 61.7342 35.1664 71.149C34.46 80.5638 34.46 85.4609 34.5673 93.704C34.6127 97.196 34.7541 102.708 35.1664 110.093C35.3181 112.812 35.6259 117.409 36.0895 123.885C36.091 123.887 36.0924 123.888 36.0938 123.89C39.8284 128.126 54.4998 145.045 56.3761 147.014C53.7856 144.94 26.584 126.507 26.584 126.507L35.3153 123.345L35.3129 123.341C35.3129 123.341 33.7139 101.294 33.7139 88.9501C33.7139 76.606 34.6537 67.2489 35.5231 59.7952C36.3924 52.3425 41.757 29.241 42.0707 28.9308ZM56.3761 147.014C56.5153 147.16 56.584 147.223 56.5728 147.194C56.5645 147.172 56.4972 147.111 56.3761 147.014Z"
                fill-rule="evenodd" fill="url(#linear_fill_EMsoDrpsLC)">
            </path>
        </g>
        <rect x="75.48388671875" y="66.95068359375" width="7.1" height="14.91" rx="3.55" fill="#0F172A">
        </rect>
        <rect x="107.44384765625" y="62.6806640625" width="7.1" height="14.91" rx="3.55" fill="#0F172A">
        </rect>
        <path stroke="rgba(15, 23, 42, 1)" stroke-width="3" stroke-linecap="round"
            d="M108.864 95.6329C99.4236 85.7107 90.3938 98.1908 90.3938 98.1908">
        </path>
    </g>
    <path stroke="rgba(51, 65, 85, 1)" stroke-width="2.0433895587921143" stroke-linecap="round"
        d="M18.7301 15.7849L11.9099 6.62061">
    </path>
    <path stroke="rgba(51, 65, 85, 1)" stroke-width="2.0433897972106934" stroke-linecap="round"
        d="M27.4055 12.4109L26.5217 1.02148">
    </path>
    <path stroke="rgba(51, 65, 85, 1)" stroke-width="2.0433895587921143" stroke-linecap="round"
        d="M2.82812 18.8789L12.957 24.1614">
    </path>
    <defs>
        <filter id="filter_GKRQSHOsH0" x="13.50390625" y="144.55078125" width="124" height="40"
            filterUnits="userSpaceOnUse" color-interpolation-filters="sRGB">
            <feFlood flood-opacity="0" result="feFloodId_GKRQSHOsH0" />
            <feBlend mode="normal" in="SourceGraphic" in2="feFloodId_GKRQSHOsH0" result="shape" />
            <feGaussianBlur result="gaussian_blur_GKRQSHOsH0" stdDeviation="7.5" />
        </filter>
        <linearGradient id="linear_fill_sjBYlSrPNh" x1="-0.03173828125" y1="19.50048828125" x2="9.944091796875"
            y2="70.75146484375" gradientUnits="userSpaceOnUse">
            <stop offset="0" stop-color="#FEE4CD" />
            <stop offset="1" stop-color="#FA7F0F" />
        </linearGradient>
        <linearGradient id="linear_fill_tZ4laZ_wHS" x1="101.667236328125" y1="-2.443359375" x2="69.83642578125"
            y2="41.88720703125" gradientUnits="userSpaceOnUse">
            <stop offset="0" stop-color="#FFF7F0" />
            <stop offset="0.9686180353164673" stop-color="#FD9F4B" />
            <stop offset="1" stop-color="#FC7F0D" />
        </linearGradient>
        <linearGradient id="linear_fill_TcXADcqG9b" x1="139.3115234375" y1="117.61572265625" x2="132.5966796875"
            y2="25.65234375" gradientUnits="userSpaceOnUse">
            <stop offset="0" stop-color="#FED2AA" />
            <stop offset="1" stop-color="#FFF4EB" />
        </linearGradient>
        <linearGradient id="linear_fill_iOEOB4wv6m" x1="21.23583984375" y1="52.81787109375" x2="36.559326171875"
            y2="176.55810546875" gradientUnits="userSpaceOnUse">
            <stop offset="0" stop-color="#FFF7F0" />
            <stop offset="1" stop-color="#FED2AA" />
        </linearGradient>
        <linearGradient id="linear_fill_EMsoDrpsLC" x1="45.475341796875" y1="155.3603515625" x2="55.1796875"
            y2="47.80615234375" gradientUnits="userSpaceOnUse">
            <stop offset="0.005173142068088055" stop-color="#FDAF68" />
            <stop offset="1" stop-color="#FFF2E6" />
        </linearGradient>
    </defs>
</svg>