<svg xmlns="http://www.w3.org/2000/svg" xmlns:xlink="http://www.w3.org/1999/xlink" width="198.82373046875"
    height="167.30859375" viewBox="0 0 198.82373046875 167.30859375" fill="none">
    <ellipse cx="92.1099609375" cy="92.64080078125" rx="63.4" ry="65.32" fill="#FFF7F0">
    </ellipse>
    <path
        d="M107.06 139.953L55.3553 152.1C51.0733 153.106 46.7728 150.389 45.7493 146.032L26.7834 65.2971C25.76 60.9406 28.4009 56.5929 32.6829 55.587L84.3878 43.4406C88.6698 42.4347 92.9704 45.1518 93.9938 49.5083L112.96 130.243C113.983 134.6 111.342 138.947 107.06 139.953Z"
        fill="#059669">
    </path>
    <path
        d="M94.1705 49.3289C93.7411 47.3595 92.5649 45.6537 90.9006 44.5864C89.2351 43.52 87.2178 43.1783 85.2908 43.6372L33.6144 56.0209C32.2356 56.3536 30.9726 57.0804 29.9733 58.1159C28.9739 59.1514 28.2784 60.4545 27.9694 61.8713C27.7375 62.9566 27.7369 64.0774 27.9697 65.1571L45.5727 146.206C46.0022 148.175 47.1783 149.881 48.8436 150.948C50.5089 152.016 52.5264 152.356 54.4534 151.898L106.129 139.514C108.056 139.05 109.734 137.824 110.794 136.103C111.854 134.384 112.209 132.31 111.783 130.338L94.1705 49.3289ZM85.1263 42.7343C86.2049 42.4757 87.3212 42.4371 88.4093 42.6196C89.4984 42.8024 90.5384 43.2043 91.4716 43.8022C92.4041 44.3988 93.2109 45.1803 93.8454 46.1C94.4796 47.0209 94.9301 48.0621 95.1699 49.1658L112.773 130.214C113.034 131.421 113.036 132.675 112.779 133.89C112.435 135.5 111.651 136.981 110.519 138.159C109.386 139.338 107.952 140.163 106.386 140.538L54.7199 152.924C52.5401 153.444 50.2582 153.057 48.3751 151.849C46.492 150.642 45.1627 148.711 44.6782 146.484L27.0752 65.4351C26.5929 63.207 26.9956 60.8634 28.1948 58.9203C29.3939 56.9772 31.2919 55.5924 33.471 55.0716L85.1263 42.7343Z"
        fill-rule="evenodd" fill="#059669">
    </path>
    <path
        d="M60.3245 80.0741L47.2777 83.139C44.1814 83.8663 41.0714 81.9024 40.3314 78.7525L38.124 69.3559C37.3841 66.206 39.2943 63.0627 42.3906 62.3353L55.4374 59.2704C58.5336 58.543 61.6437 60.507 62.3836 63.6569L64.591 73.0535C65.331 76.2034 63.4208 79.3467 60.3245 80.0741Z"
        fill="#FED2AA">
    </path>
    <g opacity="0.4">
        <path
            d="M57.9657 142.59C56.0597 143.038 54.1455 141.829 53.6902 139.891L49.4411 121.803C48.9858 119.865 50.1618 117.931 52.0678 117.483C53.9737 117.035 55.8879 118.244 56.3432 120.182L60.5923 138.27C61.0476 140.208 59.8716 142.142 57.9657 142.59Z"
            fill="#FFFFFF">
        </path>
    </g>
    <g opacity="0.4">
        <path
            d="M85.2116 70.2602L81.5535 71.1196C80.5932 71.3452 79.6286 70.7359 79.399 69.7585L76.2008 56.1445C75.9712 55.1671 76.5637 54.1921 77.524 53.9665L81.1821 53.1072C82.1424 52.8816 83.107 53.4908 83.3366 54.4682L86.5348 68.0822C86.7644 69.0596 86.1719 70.0346 85.2116 70.2602Z"
            fill="#FFFFFF">
        </path>
    </g>
    <g opacity="0.4">
        <path
            d="M89.7546 91.1274L86.0964 91.9868C85.1362 92.2124 84.1716 91.6031 83.942 90.6257L80.7438 77.0117C80.5142 76.0343 81.1066 75.0593 82.0669 74.8337L85.725 73.9744C86.6854 73.7488 87.65 74.358 87.8796 75.3354L91.0777 88.9494C91.3073 89.9268 90.7149 90.9018 89.7546 91.1274Z"
            fill="#FFFFFF">
        </path>
    </g>
    <g opacity="0.4">
        <path
            d="M94.2785 111.991L90.6204 112.851C89.6601 113.076 88.6955 112.467 88.4659 111.49L85.2677 97.8755C85.0381 96.8981 85.6306 95.9231 86.5909 95.6975L90.249 94.8381C91.2093 94.6125 92.1739 95.2218 92.4035 96.1992L95.6016 109.813C95.8312 110.791 95.2388 111.766 94.2785 111.991Z"
            fill="#FFFFFF">
        </path>
    </g>
    <g opacity="0.4">
        <path
            d="M98.8024 132.854L95.1443 133.714C94.184 133.939 93.2194 133.33 92.9898 132.353L89.7917 118.739C89.5621 117.761 90.1545 116.786 91.1148 116.561L94.7729 115.701C95.7332 115.476 96.6978 116.085 96.9274 117.062L100.126 130.676C100.355 131.654 99.7627 132.629 98.8024 132.854Z"
            fill="#FFFFFF">
        </path>
    </g>
    <g filter="url(#filter_qapGv4c3Jd)">
        <path
            d="M116.093 120.335L75.8248 112.646C72.4899 112.009 70.3589 108.497 71.0645 104.802L84.1398 36.3232C84.8454 32.628 88.1205 30.148 91.4554 30.7847L131.724 38.4736C135.059 39.1104 137.19 42.6226 136.484 46.3178L123.409 114.796C122.703 118.492 119.428 120.971 116.093 120.335Z"
            fill="#047857" fill-opacity="0.3">
        </path>
    </g>
    <path
        d="M138.614 137.378L86.1415 127.359C81.796 126.53 78.9504 122.313 79.785 117.942L95.2514 36.9413C96.086 32.5704 100.285 29.6989 104.63 30.5286L157.103 40.5478C161.448 41.3775 164.294 45.594 163.459 49.965L147.993 130.966C147.158 135.337 142.959 138.208 138.614 137.378Z"
        fill="#FED2AA">
    </path>
    <path
        d="M147.321 130.736L163.228 49.852C163.613 47.8851 163.206 45.8517 162.096 44.1989C160.985 42.5464 159.262 41.4087 157.304 41.0359L104.782 31.1102C103.38 30.8475 101.928 30.9906 100.596 31.5225C99.2649 32.0544 98.1072 32.9542 97.2605 34.1158C96.6164 35.0076 96.1712 36.0265 95.9574 37.1038L80.0266 118.02C79.6411 119.987 80.048 122.02 81.1588 123.673C82.2696 125.327 83.9933 126.464 85.9507 126.836L138.472 136.761C140.431 137.13 142.464 136.703 144.123 135.573C145.782 134.444 146.931 132.704 147.321 130.736ZM95.023 36.9898C95.4626 34.7661 96.7632 32.8 98.6387 31.5248C100.514 30.2495 102.812 29.7684 105.026 30.1882L157.511 40.1474C158.607 40.3545 159.651 40.777 160.581 41.3891C161.512 42.0018 162.311 42.7937 162.933 43.72C163.556 44.6448 163.989 45.6862 164.209 46.7826C164.428 47.8799 164.43 49.0114 164.213 50.1134L148.282 131.029C148.044 132.234 147.549 133.375 146.83 134.374C145.874 135.697 144.564 136.722 143.054 137.33C141.542 137.937 139.894 138.099 138.302 137.798L85.789 127.879C83.5747 127.458 81.6257 126.171 80.3698 124.3C79.114 122.43 78.655 120.13 79.0922 117.906L95.023 36.9898Z"
        fill-rule="evenodd" fill="#FED2AA">
    </path>
    <path
        d="M119.728 63.9033L106.49 61.3756C103.349 60.7757 101.291 57.7273 101.894 54.5669L103.694 45.139C104.298 41.9787 107.334 39.9028 110.476 40.5027L123.714 43.0304C126.855 43.6303 128.913 46.6787 128.31 49.8391L126.51 59.267C125.906 62.4273 122.87 64.5032 119.728 63.9033Z"
        fill="#059669">
    </path>
    <g opacity="0.4">
        <path
            d="M92.7261 119.782C90.7921 119.413 89.5253 117.538 89.8965 115.593L93.361 97.4491C93.7323 95.5048 95.601 94.2281 97.5349 94.5973C99.4689 94.9666 100.736 96.842 100.364 98.7863L96.9 116.931C96.5288 118.875 94.66 120.152 92.7261 119.782Z"
            fill="#FFFFFF">
        </path>
    </g>
    <g opacity="0.4">
        <path
            d="M146.563 65.2033L142.852 64.4947C141.878 64.3086 141.24 63.3631 141.427 62.3825L144.035 48.724C144.222 47.7434 145.164 47.0995 146.138 47.2856L149.849 47.9942C150.823 48.1802 151.462 49.1257 151.274 50.1063L148.666 63.7648C148.479 64.7454 147.538 65.3893 146.563 65.2033Z"
            fill="#FFFFFF">
        </path>
    </g>
    <g opacity="0.4">
        <path
            d="M142.477 86.0324L138.766 85.3237C137.791 85.1377 137.153 84.1922 137.341 83.2116L139.949 69.5531C140.136 68.5725 141.077 67.9286 142.052 68.1146L145.763 68.8233C146.737 69.0093 147.375 69.9548 147.188 70.9354L144.58 84.5939C144.393 85.5745 143.451 86.2184 142.477 86.0324Z"
            fill="#FFFFFF">
        </path>
    </g>
    <g opacity="0.4">
        <path
            d="M138.368 106.858L134.657 106.149C133.683 105.963 133.045 105.017 133.232 104.037L135.84 90.3783C136.027 89.3977 136.969 88.7538 137.943 88.9399L141.654 89.6485C142.629 89.8345 143.267 90.78 143.079 91.7606L140.471 105.419C140.284 106.4 139.343 107.044 138.368 106.858Z"
            fill="#FFFFFF">
        </path>
    </g>
    <g opacity="0.4">
        <path
            d="M134.26 127.683L130.549 126.974C129.575 126.788 128.937 125.843 129.124 124.862L131.732 111.204C131.919 110.223 132.861 109.579 133.835 109.765L137.546 110.474C138.52 110.66 139.158 111.605 138.971 112.586L136.363 126.244C136.176 127.225 135.234 127.869 134.26 127.683Z"
            fill="#FFFFFF">
        </path>
    </g>
    <path
        d="M13.97 88.2875L12.233 90.3415C11.1262 91.7677 7.60679 90.7684 4.38172 88.0996C1.15665 85.4308 -0.567892 82.1255 0.551347 80.695L2.2924 78.6411L13.97 88.2875Z"
        fill="#FFFFFF">
    </path>
    <path
        d="M0.654407 84.0394C-0.112306 82.5573 -0.207737 81.3272 0.380875 80.567L2.12587 78.5041C2.16117 78.4626 2.21066 78.4368 2.26384 78.4319C2.31715 78.4272 2.37019 78.4438 2.41188 78.4785L14.1006 88.1097C14.123 88.1267 14.1416 88.1485 14.1552 88.1736C14.1688 88.1986 14.177 88.2264 14.1793 88.255C14.1838 88.3137 14.166 88.3719 14.1295 88.4173L12.3886 90.4717C12.1646 90.7287 11.8862 90.9294 11.5751 91.0582C11.264 91.187 10.9284 91.2406 10.594 91.2149C8.93595 91.2149 6.54435 90.1598 4.2523 88.272C2.79743 87.1154 1.5754 85.6778 0.654407 84.0394ZM12.0737 90.2197L13.6736 88.3233L2.30411 78.9397L0.700067 80.8488C0.231701 81.4511 0.347694 82.5573 1.01926 83.8386C1.91317 85.4284 3.10017 86.8228 4.51335 87.9432C7.59311 90.5058 11.054 91.5267 12.0737 90.2197Z"
        fill-rule="evenodd" fill="#0F172A">
    </path>
    <path
        d="M10.1661 80.9024C13.4418 83.509 15.1858 86.7678 14.0614 88.1809C12.9369 89.5941 9.36971 88.6266 6.09394 86.02C2.81818 83.4134 1.07419 80.1547 2.19867 78.7415C3.32315 77.3284 6.89032 78.2959 10.1661 80.9024Z"
        fill="#FFFFFF">
    </path>
    <path
        d="M13.3198 88.997C13.0072 89.1267 12.6701 89.1807 12.334 89.1551C10.676 89.1551 8.28002 88.1002 5.9961 86.2167C4.53893 85.0614 3.31524 83.6235 2.39393 81.9841C1.62713 80.5021 1.53179 79.272 2.12453 78.5118C2.71318 77.7517 3.90287 77.5765 5.46969 78.025C7.22362 78.5924 8.85282 79.5079 10.2656 80.7199C13.6356 83.5003 15.3351 86.8829 14.1371 88.4077C13.912 88.6659 13.6324 88.8675 13.3198 88.997ZM2.76289 81.7663C3.6557 83.3556 4.8413 84.7499 6.25311 85.8707C9.33296 88.4333 12.7983 89.4541 13.8139 88.1471C14.8294 86.8402 13.0885 83.5814 10.0044 81.0403C8.63645 79.864 7.05774 78.976 5.35774 78.4264C4.8914 78.2882 4.40883 78.2164 3.92357 78.2129C3.65225 78.1864 3.37863 78.2234 3.12316 78.321C2.86769 78.4186 2.63688 78.5743 2.44786 78.7767C1.97117 79.3874 2.08721 80.485 2.76289 81.7663Z"
        fill-rule="evenodd" fill="#0F172A">
    </path>
    <path
        d="M6.98146 80.7094C7.63496 80.8896 8.2524 81.1875 8.80529 81.5892C9.15088 81.8309 9.46447 82.1181 9.73787 82.4435C9.90969 82.6196 10.0242 82.8465 10.0654 83.0927C10.0738 83.1798 10.0561 83.2675 10.0145 83.3439C9.97303 83.4203 9.90969 83.4817 9.8332 83.5198C9.71303 83.6052 9.58035 83.6821 9.44775 83.7675L10.8736 85.1642C11.1182 84.9848 11.0104 84.6815 10.6747 84.31L11.5492 84.1562C11.8153 84.3941 12.0323 84.6846 12.1876 85.0104C12.2534 85.1329 12.282 85.273 12.2694 85.4124C12.2569 85.5518 12.2038 85.6841 12.1171 85.792C12.0301 85.8903 11.9098 85.9757 11.8021 86.0739L12.3202 86.5822L11.4912 86.8512L10.9607 86.3344C10.7037 86.3344 10.4632 86.3344 10.198 86.3344C9.68664 86.2841 9.18815 86.1394 8.72653 85.9073C8.10015 85.6223 7.53622 85.2096 7.0685 84.6943C6.59186 84.1562 6.48825 83.7333 6.78252 83.4472C6.9791 83.273 7.20736 83.1408 7.45396 83.0585L7.55351 83.0201L6.10685 81.6106L6.06544 81.6106C6.03264 81.7016 6.01039 81.7962 5.9991 81.8925C6.0462 82.0855 6.15232 82.2577 6.30173 82.3837L4.94626 82.4691C4.83851 82.3495 4.73076 82.2342 4.63543 82.1189C4.28724 81.6918 4.15456 81.3373 4.26239 81.0596C4.33328 80.9256 4.43568 80.8119 4.56024 80.7291C4.6848 80.6462 4.82747 80.5969 4.97533 80.5855C5.02088 80.5855 5.02088 80.5599 4.97533 80.5129C4.71419 80.2652 4.45719 80.0132 4.2002 79.7612L5.41056 79.821L6.16905 80.5642L6.2561 80.5642C6.50067 80.6112 6.73274 80.6454 6.98146 80.7094ZM7.12656 81.4996L8.35349 82.704C8.46539 82.6399 8.57728 82.5887 8.59385 82.4734C8.62292 82.2598 8.1794 81.8541 7.72338 81.6832C7.52858 81.6063 7.34207 81.5637 7.12656 81.4996ZM9.97002 85.3905L8.68503 84.1348C8.55658 84.2416 8.39076 84.3227 8.42389 84.5235C8.45711 84.7242 8.9089 85.1428 9.32749 85.288C9.53341 85.3638 9.75143 85.3986 9.97002 85.3905Z"
        fill-rule="evenodd" fill="#FED2AA">
    </path>
    <path
        d="M31.5051 101.72L32.9807 103.833C34.0243 105.209 32.3573 108.316 29.2594 110.78C26.1616 113.245 22.798 114.122 21.7515 112.751L20.275 110.634L31.5051 101.72Z"
        fill="#FFFFFF">
    </path>
    <path
        d="M20.5504 110.677L21.9133 112.633C22.8687 113.887 26.179 112.968 29.1496 110.616C32.1203 108.264 33.7977 105.218 32.835 103.948L31.4778 101.999L20.5504 110.677ZM24.5738 113.46C23.2301 113.767 22.1464 113.599 21.6076 112.89L20.1261 110.77C20.0966 110.727 20.084 110.674 20.091 110.622C20.0979 110.57 20.1239 110.523 20.1635 110.491L31.3973 101.577C31.4184 101.561 31.4428 101.549 31.4686 101.543C31.4945 101.537 31.5213 101.537 31.5474 101.543C31.574 101.547 31.5994 101.557 31.6223 101.572C31.6452 101.587 31.665 101.606 31.6806 101.628L33.1563 103.742C34.2803 105.22 32.6317 108.393 29.3952 110.964C27.9796 112.133 26.3372 112.984 24.5738 113.46Z"
        fill-rule="evenodd" fill="#0F172A">
    </path>
    <path
        d="M31.583 101.815C32.6332 103.185 30.9371 106.248 27.7947 108.658C24.6523 111.067 21.2534 111.911 20.2033 110.541C19.1531 109.171 20.8492 106.108 23.9916 103.698C27.134 101.289 30.5328 100.446 31.583 101.815Z"
        fill="#FFFFFF">
    </path>
    <path
        d="M31.6535 101.615C32.7827 103.1 31.1348 106.272 27.8994 108.842C26.5407 109.961 24.9791 110.796 23.3017 111.3L23.0806 111.342C21.695 111.659 20.6486 111.457 20.1153 110.772C18.9678 109.296 20.634 106.115 23.8703 103.549C27.1066 100.983 30.5243 100.13 31.6535 101.615ZM20.4351 110.541C20.8853 111.128 21.9039 111.261 23.2111 110.921C24.8378 110.433 26.3517 109.622 27.6668 108.534C30.6267 106.193 32.3132 103.137 31.3507 101.867C30.9064 101.27 29.9764 101.171 28.8065 101.438C27.0935 101.907 25.4986 102.736 24.1228 103.874C21.1629 106.215 19.4764 109.271 20.4351 110.541Z"
        fill-rule="evenodd" fill="#0F172A">
    </path>
    <path
        d="M24.0218 107.906C24.2056 107.907 24.3838 107.845 24.5288 107.731L24.3111 109.029C24.1787 109.105 24.0539 109.179 23.9302 109.241C23.4705 109.479 23.1207 109.526 22.8919 109.358C22.7888 109.261 22.7102 109.14 22.6632 109.006C22.6162 108.872 22.6023 108.728 22.6226 108.587C22.6136 108.548 22.6118 108.54 22.5557 108.578L21.7085 109.142L22.0065 107.93L22.84 107.377L22.8746 107.299C22.9698 107.077 23.0421 106.844 23.162 106.642C23.4682 106.067 23.8716 105.552 24.3533 105.122C24.6476 104.85 24.9758 104.618 25.3297 104.433C25.5272 104.313 25.7576 104.26 25.9878 104.283C26.0648 104.296 26.1366 104.333 26.1938 104.388C26.2511 104.443 26.2914 104.514 26.3096 104.592C26.3412 104.73 26.4016 104.87 26.4466 105.014L28.0157 103.977C27.9044 103.703 27.6125 103.736 27.2044 103.971L27.2585 103.127C27.5354 102.928 27.8492 102.789 28.1811 102.716C28.3073 102.681 28.4416 102.687 28.5654 102.733C28.6891 102.779 28.7962 102.864 28.8718 102.974C28.943 103.094 29.0067 103.219 29.0623 103.347L29.6324 102.971L29.6964 103.817L29.1173 104.207C29.0593 104.45 29.0148 104.68 28.9423 104.93C28.7905 105.403 28.5567 105.844 28.2517 106.231C27.8622 106.761 27.3685 107.201 26.8018 107.524C26.214 107.858 25.8131 107.858 25.6175 107.516C25.5029 107.291 25.433 107.045 25.4118 106.793C25.4036 106.758 25.3955 106.722 25.3883 106.691L23.8073 107.747L23.7828 107.781C23.8567 107.834 23.9371 107.876 24.0218 107.906ZM25.2427 105.788C25.2156 105.669 25.1875 105.547 25.0855 105.508C24.9023 105.433 24.4423 105.759 24.1844 106.155C24.0767 106.321 23.9976 106.489 23.899 106.678L25.2427 105.788ZM27.7878 105.46C27.9005 105.281 27.9785 105.081 28.0176 104.871L26.6054 105.797C26.6752 105.943 26.7112 106.118 26.8997 106.145C27.0866 106.1 27.2618 106.016 27.4146 105.898C27.5674 105.78 27.6945 105.631 27.7878 105.46Z"
        fill-rule="evenodd" fill="#FED2AA">
    </path>
    <path stroke="rgba(51, 65, 85, 1)" stroke-width="2.0433895587921143" stroke-linecap="round"
        d="M175.303 34.1856L184.15 26.9588">
    </path>
    <path stroke="rgba(51, 65, 85, 1)" stroke-width="2.0433897972106934" stroke-linecap="round"
        d="M167.711 28.7999L171.343 17.969">
    </path>
    <path stroke="rgba(51, 65, 85, 1)" stroke-width="2.0433895587921143" stroke-linecap="round"
        d="M189.972 41.0604L178.861 43.7162">
    </path>
    <defs>
        <filter id="filter_qapGv4c3Jd" x="50.9296875" y="10.68505859375" width="105.689453125" height="129.7490234375"
            filterUnits="userSpaceOnUse" color-interpolation-filters="sRGB">
            <feFlood flood-opacity="0" result="feFloodId_qapGv4c3Jd" />
            <feBlend mode="normal" in="SourceGraphic" in2="feFloodId_qapGv4c3Jd" result="shape" />
            <feGaussianBlur result="gaussian_blur_qapGv4c3Jd" stdDeviation="10" />
        </filter>
    </defs>
</svg>